<?xml version="1.0" encoding="UTF-8"?>
<!DOCTYPE svg PUBLIC "-//W3C//DTD SVG 1.1//EN" "http://www.w3.org/Graphics/SVG/1.1/DTD/svg11.dtd">
<!-- Creator: CorelDRAW 2020 (64-Bit) -->
<svg xmlns="http://www.w3.org/2000/svg" xml:space="preserve" width="32px" height="32px" version="1.1" style="shape-rendering:geometricPrecision; text-rendering:geometricPrecision; image-rendering:optimizeQuality; fill-rule:evenodd; clip-rule:evenodd"
viewBox="0 0 4.07 4.07"
 xmlns:xlink="http://www.w3.org/1999/xlink"
 xmlns:xodm="http://www.corel.com/coreldraw/odm/2003">
 <defs>
  <style type="text/css">
   <![CDATA[
    .fil5 {fill:black;fill-rule:nonzero}
    .fil4 {fill:#455A64;fill-rule:nonzero}
    .fil3 {fill:#CFD8DC;fill-rule:nonzero}
    .fil1 {fill:#FFA000;fill-rule:nonzero}
    .fil2 {fill:#FFC107;fill-rule:nonzero}
    .fil0 {fill:#FFD54F;fill-rule:nonzero}
   ]]>
  </style>
 </defs>
 <g id="Слой_x0020_1">
  <metadata id="CorelCorpID_0Corel-Layer"/>
  <g id="icon-brick.svg">
   <path class="fil0" d="M4.07 1.95l0 1.19c0,0.04 -0.02,0.07 -0.06,0.08l-2.71 0.85c-0.01,0 -0.02,0 -0.03,0l0 -1.27 2.8 -0.87c0,0.01 0,0.01 0,0.02l0 0zm0 0z"/>
   <path class="fil1" d="M1.27 2.8l0 1.27c-0.01,0 -0.03,0 -0.04,-0.01l-1.19 -0.68c-0.02,-0.01 -0.04,-0.04 -0.04,-0.07l0 -1.19c0,-0.01 0,-0.03 0.01,-0.04l1.26 0.72zm0 0z"/>
   <path class="fil2" d="M4.07 1.97l-2.8 0.87 -1.26 -0.72c0.01,-0.02 0.03,-0.03 0.05,-0.04l2.72 -0.85c0.02,0 0.04,0 0.06,0.01l1.19 0.68c0.02,0.01 0.03,0.03 0.04,0.05l0 0zm0 0z"/>
   <path class="fil3" d="M3.59 1.23l-1.01 -0.5c-0.19,-0.09 -0.42,-0.05 -0.55,0.11l-1.16 1.4c-0.02,0.03 -0.03,0.07 -0.01,0.1 0.02,0.02 0.04,0.04 0.07,0.04 0.01,0 0.02,0 0.02,-0.01l2.58 -0.64c0.12,-0.03 0.2,-0.14 0.2,-0.26 0,-0.1 -0.05,-0.19 -0.14,-0.24l0 0zm0 0z"/>
   <path class="fil4" d="M3.8 0l-0.08 0c-0.07,0 -0.13,0.02 -0.18,0.06l-0.47 0.38c-0.07,0.05 -0.08,0.14 -0.05,0.21 0.03,0.06 0.09,0.09 0.15,0.09 0.02,0 0.03,0 0.05,-0.01l0.65 -0.18c0.12,-0.04 0.2,-0.15 0.2,-0.27 0,-0.16 -0.12,-0.28 -0.27,-0.28l0 0zm0 0z"/>
   <path class="fil5" d="M1.27 4.07c-0.01,0 -0.03,0 -0.04,-0.01l-1.19 -0.68c-0.02,-0.01 -0.04,-0.04 -0.04,-0.07l0 -1.19c0,-0.03 0.02,-0.06 0.04,-0.07 0.03,-0.02 0.06,-0.02 0.09,0l1.19 0.68c0.02,0.01 0.04,0.04 0.04,0.07l0 1.19c0,0.03 -0.02,0.06 -0.04,0.07 -0.02,0.01 -0.03,0.01 -0.05,0.01zm-1.1 -0.81l1.02 0.58 0 -0.99 -1.02 -0.58 0 0.99zm0 0z"/>
   <path class="fil5" d="M1.53 2.46c-0.02,0 -0.03,0 -0.05,-0.01l-0.25 -0.15c-0.04,-0.03 -0.05,-0.08 -0.03,-0.12 0.02,-0.04 0.08,-0.05 0.12,-0.03l0.25 0.15c0.04,0.03 0.05,0.08 0.03,0.12 -0.02,0.03 -0.04,0.04 -0.07,0.04zm0 0z"/>
   <path class="fil5" d="M2.04 2.29c-0.02,0 -0.03,0 -0.05,-0.01l-0.22 -0.14c-0.04,-0.02 -0.05,-0.07 -0.03,-0.11 0.02,-0.04 0.08,-0.06 0.12,-0.03l0.22 0.13c0.04,0.03 0.05,0.08 0.03,0.12 -0.02,0.03 -0.04,0.04 -0.07,0.04zm0 0z"/>
   <path class="fil5" d="M2.55 2.12c-0.02,0 -0.03,0 -0.05,-0.01l-0.17 -0.1c-0.04,-0.03 -0.06,-0.08 -0.03,-0.12 0.02,-0.04 0.08,-0.05 0.12,-0.03l0.17 0.1c0.04,0.03 0.05,0.08 0.03,0.12 -0.02,0.03 -0.04,0.04 -0.07,0.04zm0 0z"/>
   <path class="fil5" d="M3.06 1.95c-0.02,0 -0.03,0 -0.05,-0.01l-0.12 -0.07c-0.04,-0.03 -0.06,-0.08 -0.03,-0.12 0.02,-0.04 0.07,-0.05 0.11,-0.03l0.13 0.07c0.04,0.03 0.05,0.08 0.03,0.12 -0.02,0.03 -0.05,0.04 -0.07,0.04zm0 0z"/>
   <path class="fil5" d="M1.27 4.07c-0.03,0 -0.07,-0.02 -0.08,-0.06 -0.01,-0.04 0.01,-0.09 0.06,-0.1l2.65 -0.83 0 -1.01 -2.6 0.81c-0.05,0.02 -0.09,-0.01 -0.11,-0.05 -0.01,-0.05 0.01,-0.1 0.06,-0.11l2.71 -0.85c0.03,-0.01 0.06,0 0.08,0.01 0.02,0.02 0.03,0.05 0.03,0.07l0 1.19c0,0.04 -0.02,0.07 -0.06,0.08l-2.71 0.85c-0.01,0 -0.02,0 -0.03,0l0 0zm0 0z"/>
   <path class="fil5" d="M3.99 2.04c-0.02,0 -0.03,-0.01 -0.04,-0.01l-0.52 -0.3c-0.04,-0.02 -0.05,-0.07 -0.03,-0.12 0.02,-0.04 0.07,-0.05 0.11,-0.03l0.52 0.3c0.04,0.02 0.06,0.07 0.03,0.11 -0.01,0.03 -0.04,0.05 -0.07,0.05zm0 0z"/>
   <path class="fil5" d="M0.08 2.21c-0.03,0 -0.07,-0.03 -0.08,-0.07 -0.01,-0.04 0.02,-0.09 0.06,-0.1l1.28 -0.34c0.04,-0.01 0.09,0.02 0.1,0.06 0.01,0.05 -0.01,0.09 -0.06,0.1l-1.27 0.34c-0.01,0.01 -0.02,0.01 -0.03,0.01zm0 0z"/>
   <path class="fil5" d="M1.95 1.7c-0.03,0 -0.05,-0.02 -0.07,-0.04 -0.02,-0.04 -0.01,-0.1 0.03,-0.12l0.82 -0.49 0.16 -0.4c0.01,-0.02 0.02,-0.04 0.04,-0.05l0.17 -0.08c0.04,-0.02 0.1,-0.01 0.12,0.04 0.02,0.04 0,0.09 -0.04,0.11l-0.14 0.07 -0.16 0.39c-0.01,0.02 -0.02,0.04 -0.04,0.05l-0.84 0.51c-0.02,0 -0.03,0.01 -0.05,0.01l0 0zm0 0z"/>
   <path class="fil5" d="M0.93 2.38c-0.03,0 -0.05,-0.02 -0.07,-0.04 -0.02,-0.03 -0.01,-0.07 0.01,-0.1l1.16 -1.4c0.13,-0.16 0.36,-0.2 0.55,-0.11l1.01 0.5c0.09,0.05 0.14,0.14 0.14,0.24 0,0.12 -0.08,0.23 -0.2,0.26l-2.58 0.64c0,0.01 -0.01,0.01 -0.02,0.01l0 0zm1.45 -1.53c-0.09,0 -0.16,0.04 -0.22,0.1l-0.99 1.2 2.32 -0.59c0.04,-0.01 0.07,-0.04 0.07,-0.09 0,-0.04 -0.02,-0.07 -0.05,-0.09l-1.01 -0.5c-0.04,-0.02 -0.08,-0.03 -0.12,-0.03zm0 0z"/>
   <path class="fil5" d="M3.17 0.74c-0.06,0 -0.12,-0.03 -0.15,-0.09 -0.03,-0.07 -0.02,-0.16 0.05,-0.21l0.47 -0.38c0.05,-0.04 0.11,-0.06 0.18,-0.06l0.08 0c0.15,0 0.27,0.12 0.27,0.28 0,0.12 -0.08,0.23 -0.2,0.27l-0.65 0.18c-0.02,0.01 -0.03,0.01 -0.05,0.01zm0.55 -0.57c-0.03,0 -0.05,0.01 -0.07,0.02l-0.47 0.38 0.65 -0.19c0.04,-0.01 0.07,-0.05 0.07,-0.1 0,-0.06 -0.04,-0.11 -0.1,-0.11l-0.08 0zm0 0z"/>
  </g>
 </g>
</svg>
