<?xml version="1.0" encoding="UTF-8"?>
<!DOCTYPE svg PUBLIC "-//W3C//DTD SVG 1.1//EN" "http://www.w3.org/Graphics/SVG/1.1/DTD/svg11.dtd">
<!-- Creator: CorelDRAW 2020 (64-Bit) -->
<svg xmlns="http://www.w3.org/2000/svg" xml:space="preserve" width="4px" height="4px" version="1.1" style="shape-rendering:geometricPrecision; text-rendering:geometricPrecision; image-rendering:optimizeQuality; fill-rule:evenodd; clip-rule:evenodd"
viewBox="0 0 5.03 4.8"
 xmlns:xlink="http://www.w3.org/1999/xlink"
 xmlns:xodm="http://www.corel.com/coreldraw/odm/2003">
 <defs>
  <style type="text/css">
   <![CDATA[
    .fil0 {fill:#D22E2E}
   ]]>
  </style>
 </defs>
 <g id="Слой_x0020_1">
  <metadata id="CorelCorpID_0Corel-Layer"/>
  <path class="fil0" d="M0.72 0.56c0,0 0.31,-0.19 0.94,-0.56 0.56,0.99 0.84,1.48 0.84,1.48 0.58,-0.98 0.86,-1.48 0.86,-1.48 0.63,0.37 0.94,0.55 0.94,0.55 -0.64,0.92 -0.95,1.38 -0.95,1.38 1.11,-0.03 1.67,-0.05 1.67,-0.05 0.01,0.69 0.01,1.04 0.01,1.04 -1.12,-0.04 -1.68,-0.06 -1.68,-0.06 0.63,0.92 0.95,1.39 0.95,1.39 -0.62,0.37 -0.94,0.55 -0.94,0.55 -0.56,-0.99 -0.84,-1.49 -0.84,-1.49 -0.57,0.99 -0.86,1.49 -0.86,1.49 -0.63,-0.37 -0.94,-0.56 -0.94,-0.56 0.64,-0.92 0.96,-1.38 0.96,-1.38 -1.12,0.04 -1.68,0.06 -1.68,0.06 0,-0.7 0.01,-1.05 0.01,-1.05 1.11,0.04 1.66,0.06 1.66,0.06 -0.63,-0.91 -0.95,-1.37 -0.95,-1.37l0 -0.01 0 0.01z"/>
 </g>
</svg>
